<?xml version="1.0" encoding="UTF-8"?>
<svg version="1.1" xmlns="http://www.w3.org/2000/svg" width="757" height="285">
<path d="M0 0 C0.65663635 0.00054382 1.31327271 0.00108765 1.98980713 0.00164795 C12.95445369 0.04325256 22.94625869 1.00297141 33.375 4.375 C34.38143555 4.68848389 34.38143555 4.68848389 35.40820312 5.00830078 C50.18041962 9.71720933 63.72718734 17.11856428 75.375 27.375 C76.60089844 28.40367188 76.60089844 28.40367188 77.8515625 29.453125 C101.04511278 49.4153757 114.66818181 78.10689737 117.375 108.375 C117.65937506 112.83427172 117.80380006 117.2825277 117.875 121.75 C117.90561523 122.82604492 117.93623047 123.90208984 117.96777344 125.01074219 C117.9680957 126.02555664 117.96841797 127.04037109 117.96875 128.0859375 C117.97583984 128.98618652 117.98292969 129.88643555 117.99023438 130.81396484 C117.0664329 134.65947177 115.55616637 136.0572089 112.375 138.375 C109.33271659 139.07574935 106.38866133 139.05321377 103.27734375 139.00390625 C101.9704232 139.00752419 101.9704232 139.00752419 100.63710022 139.01121521 C98.80058222 139.01023826 96.96403422 138.99688078 95.12768555 138.97192383 C92.31783082 138.93756518 89.51111393 138.95128353 86.70117188 138.97070312 C84.91404913 138.96380567 83.12693448 138.95413418 81.33984375 138.94140625 C80.50122299 138.94636612 79.66260223 138.95132599 78.79856873 138.95643616 C75.05729443 138.88090216 72.98959523 138.7953314 69.84619141 136.64550781 C68.1399688 134.01227345 67.87791286 132.59798841 67.87109375 129.48046875 C67.8548999 128.53244385 67.83870605 127.58441895 67.82202148 126.60766602 C67.81730835 125.10030884 67.81730835 125.10030884 67.8125 123.5625 C67.29495396 103.7119059 62.9977716 86.43834055 49.375 71.375 C48.84519531 70.76527344 48.31539062 70.15554687 47.76953125 69.52734375 C38.18745542 59.17141857 23.00505229 51.32538608 8.8684082 50.17016602 C-11.68258889 49.43035271 -30.07114796 52.9592347 -45.625 67.375 C-58.4719391 79.89476747 -66.60066513 95.58648229 -66.86694336 113.67163086 C-66.92817639 134.6931143 -60.8300581 150.24631589 -46.45703125 165.70703125 C-34.24646328 177.71306709 -17.01307075 184.15538658 -0.05078125 184.55078125 C0.94630859 184.57462891 1.94339844 184.59847656 2.97070312 184.62304688 C5.04340501 184.66625544 7.1163919 184.69737407 9.18945312 184.71679688 C10.18267578 184.74451172 11.17589844 184.77222656 12.19921875 184.80078125 C13.09729248 184.81536377 13.99536621 184.82994629 14.9206543 184.8449707 C18.33217745 185.58170767 19.40931472 186.47637111 21.375 189.375 C21.96796119 192.36439401 21.95938723 195.29959735 21.94140625 198.33984375 C21.94760483 199.21016739 21.95380341 200.08049103 21.96018982 200.97718811 C21.96728457 202.8154285 21.96411994 204.65373318 21.95141602 206.49194336 C21.9375623 209.29987318 21.9716082 212.10446165 22.00976562 214.91210938 C22.01071699 216.70052165 22.00885708 218.48893808 22.00390625 220.27734375 C22.01716446 221.11394028 22.03042267 221.9505368 22.04408264 222.81248474 C21.97655836 227.05550036 21.73262834 228.88717499 19.15258789 232.40649414 C16.16962866 234.52054884 14.90021281 234.99844835 11.3046875 234.96875 C10.3353125 234.9685083 9.3659375 234.9682666 8.3671875 234.96801758 C7.33851563 234.93732178 6.30984375 234.90662598 5.25 234.875 C4.18265625 234.85655029 3.1153125 234.83810059 2.015625 234.8190918 C-31.08240929 233.92301584 -61.84682743 221.69539622 -85.17431641 197.78710938 C-109.39504068 171.69211451 -117.70536668 140.80940956 -116.76855469 105.70214844 C-115.46253951 75.43280346 -98.44164189 48.28886291 -77.0625 27.875 C-55.68600657 9.12077828 -28.13295642 -0.0395884 0 0 Z " fill="#0D0F12" transform="translate(126.625,24.625)"/>
<path d="M0 0 C1.28713898 -0.01902626 1.28713898 -0.01902626 2.60028076 -0.03843689 C3.52528381 -0.03550125 4.45028687 -0.03256561 5.40332031 -0.02954102 C6.35909973 -0.03478287 7.31487915 -0.04002472 8.29962158 -0.04542542 C10.32376128 -0.05185155 12.3479383 -0.05050099 14.37207031 -0.04199219 C17.45608977 -0.03351695 20.53823557 -0.06217915 23.62207031 -0.09399414 C25.59081976 -0.09560721 27.55957247 -0.0950266 29.52832031 -0.09204102 C30.44522644 -0.10327499 31.36213257 -0.11450897 32.30682373 -0.12608337 C43.42623678 -0.00628262 48.84493121 6.07375451 56.31347656 13.62280273 C57.20886642 14.51769409 58.10425629 15.41258545 59.02677917 16.33459473 C60.91048219 18.22063093 62.79102342 20.10925873 64.66674805 22.00317383 C67.06679419 24.42598713 69.47784557 26.83748243 71.89265919 29.24556732 C74.20483698 31.55359728 76.50892441 33.86966229 78.81347656 36.18530273 C79.67801956 37.04893433 80.54256256 37.91256592 81.43330383 38.80236816 C82.23140976 39.6100061 83.02951569 40.41764404 83.85180664 41.24975586 C84.90601555 42.31087585 84.90601555 42.31087585 85.98152161 43.39343262 C89.49329985 47.42838108 89.98411004 50.34240242 90.00610352 55.66967773 C90.01563553 56.93779297 90.02516754 58.2059082 90.0349884 59.51245117 C90.03472699 60.89298531 90.03379003 62.27351946 90.03222656 63.65405273 C90.03611497 65.07365036 90.04044994 66.49324683 90.04521179 67.9128418 C90.05266594 70.88521094 90.05238825 73.85746127 90.04711914 76.82983398 C90.04132011 80.63643955 90.05826932 84.44255925 90.08146381 88.24908447 C90.09620262 91.17963497 90.09707278 94.11006842 90.09395409 97.04064941 C90.09446705 98.44406091 90.09970021 99.847479 90.10976601 101.25085449 C90.12211685 103.21334106 90.11339928 105.17592597 90.10375977 107.13842773 C90.10438919 108.25443359 90.10501862 109.37043945 90.10566711 110.52026367 C89.68023594 113.79867703 89.10482014 115.12419917 86.73144531 117.40405273 C79.49626273 120.63632406 70.22007967 120.56389966 62.74621582 118.26254272 C49.21526727 112.49703055 38.23976287 97.56207219 28.46765137 87.04211426 C24.72964794 83.05027185 20.90955935 79.13859168 17.09863281 75.21655273 C11.55982159 69.48815521 6.04577725 63.73799409 0.60449219 57.91674805 C0.03538116 57.31398041 -0.53372986 56.71121277 -1.12008667 56.09017944 C-5.12500344 51.77500463 -7.5073883 48.89680334 -7.54321289 42.95849609 C-7.5527449 42.08756821 -7.56227692 41.21664032 -7.57209778 40.31932068 C-7.57118637 39.38693069 -7.57027496 38.45454071 -7.56933594 37.49389648 C-7.57362106 36.53004532 -7.57790619 35.56619415 -7.58232117 34.57313538 C-7.588058 32.53818548 -7.58856949 30.50321507 -7.58422852 28.46826172 C-7.58106275 25.34950011 -7.60455596 22.23168186 -7.62988281 19.11303711 C-7.63215523 17.13582477 -7.63285957 15.15860987 -7.63183594 13.18139648 C-7.64104568 12.24698227 -7.65025543 11.31256805 -7.65974426 10.34983826 C-7.65351547 9.48206253 -7.64728668 8.6142868 -7.64086914 7.72021484 C-7.64149857 6.95728622 -7.64212799 6.1943576 -7.64277649 5.40830994 C-6.82235349 1.01428827 -4.13996442 0.02967072 0 0 Z " fill="#4DBE69" transform="translate(154.2685546875,161.595947265625)"/>
<path d="M0 0 C7.26052774 4.69644948 10.82382831 11.07160172 14 19 C14 19.66 14 20.32 14 21 C11.41414795 21.16236745 8.83848046 21.28095486 6.25 21.375 C5.52039063 21.42527344 4.79078125 21.47554687 4.0390625 21.52734375 C1.890625 21.5859375 1.890625 21.5859375 -2 21 C-4.3515625 18.12109375 -4.3515625 18.12109375 -6 15 C-10.8554094 10.72261553 -15.67709129 9.75912729 -22 10 C-27.91236854 11.64770926 -30.5879164 14.12559485 -34 19 C-37.01460496 25.19785914 -36.99822695 32.55477062 -35.5 39.2265625 C-33.67110153 43.94428924 -30.4588266 47.53088977 -26.13671875 50.11328125 C-21.56378017 52.01100896 -16.41741723 51.68892266 -11.7109375 50.34765625 C-6.4187293 48.03850923 -4.39147169 45.18152199 -2 40 C3.28 40 8.56 40 14 40 C11.62784706 49.48861178 8.62149412 55.93418592 0.25 61.375 C-9.51160739 66.71406097 -20.1942434 67.23779164 -30.875 64.17578125 C-39.58990341 60.89472386 -44.53502314 56.12163895 -49 48 C-53.57846686 37.86928788 -53.32967122 25.96150904 -50.04296875 15.46875 C-46.66796476 7.47997651 -40.44678631 1.45554597 -32.6875 -2.3125 C-22.54291005 -6.07259763 -9.29371243 -5.69176173 0 0 Z " fill="#57C172" transform="translate(337,49)"/>
<path d="M0 0 C5.61 0 11.22 0 17 0 C31.64354654 38.99088324 31.64354654 38.99088324 37.9375 55.9375 C38.35563965 57.06003174 38.7737793 58.18256348 39.20458984 59.33911133 C39.57922363 60.34997803 39.95385742 61.36084473 40.33984375 62.40234375 C40.66331787 63.27366943 40.98679199 64.14499512 41.32006836 65.04272461 C42 67 42 67 42 68 C36.72 68 31.44 68 26 68 C22 57.375 22 57.375 22 54 C13.09 54 4.18 54 -5 54 C-5.66 56.97 -6.32 59.94 -7 63 C-7.66 64.65 -8.32 66.3 -9 68 C-14.28 68 -19.56 68 -25 68 C-20.00134703 53.17971259 -14.62618769 38.51460844 -9.125 23.875 C-8.78894745 22.98039062 -8.4528949 22.08578125 -8.10665894 21.1640625 C-7.1373648 18.58550085 -6.16678366 16.00742968 -5.1953125 13.4296875 C-4.90287155 12.6534201 -4.6104306 11.87715271 -4.30912781 11.07736206 C-4.03454239 10.35042145 -3.75995697 9.62348083 -3.47705078 8.87451172 C-3.23914825 8.24439178 -3.00124573 7.61427185 -2.75613403 6.96505737 C-1.85946339 4.63477044 -0.92730648 2.31826619 0 0 Z M8 17 C6.65909207 20.7681831 5.3285821 24.53995521 4 28.3125 C3.6184375 29.38435547 3.236875 30.45621094 2.84375 31.56054688 C2.4828125 32.58857422 2.121875 33.61660156 1.75 34.67578125 C1.24726563 36.0975769 1.24726563 36.0975769 0.734375 37.5480957 C-0.14345953 40.05239079 -0.14345953 40.05239079 0 43 C5.61 43 11.22 43 17 43 C15.36231563 33.99273599 12.13020303 25.57360642 9 17 C8.67 17 8.34 17 8 17 Z " fill="#55C170" transform="translate(390,46)"/>
<path d="M0 0 C5.28 0 10.56 0 16 0 C19.01542155 6.61136794 21.69138244 13.28771903 24.22265625 20.09765625 C24.60941025 21.13135849 24.99616425 22.16506073 25.39463806 23.23008728 C26.61985808 26.50659392 27.84125075 29.78451155 29.0625 33.0625 C29.88581232 35.26637146 30.70937775 37.47014839 31.53320312 39.67382812 C35.27638396 49.68913854 35.27638396 49.68913854 37.06057739 54.49514771 C37.6694844 56.11872171 38.28887962 57.73841602 38.92062378 59.35324097 C40.09995861 62.38220178 41 64.71792095 41 68 C36.05 68 31.1 68 26 68 C22.125 58.375 22.125 58.375 21 55 C8.13 54.505 8.13 54.505 -5 54 C-5.99 57.63 -6.98 61.26 -8 65 C-8.33 65.99 -8.66 66.98 -9 68 C-14.28 68 -19.56 68 -25 68 C-22.74501489 60.12825271 -20.04058943 52.50214029 -17.1484375 44.84375 C-16.68893707 43.61966431 -16.22943665 42.39557861 -15.75601196 41.13439941 C-14.79149678 38.5654019 -13.82485643 35.99721888 -12.85644531 33.4296875 C-11.61486383 30.1378096 -10.37718365 26.84448232 -9.14087486 23.55062103 C-7.95728392 20.39780802 -6.77163767 17.24577043 -5.5859375 14.09375 C-5.14116058 12.91051147 -4.69638367 11.72727295 -4.23812866 10.50817871 C-3.82745148 9.41944458 -3.41677429 8.33071045 -2.99365234 7.20898438 C-2.45096207 5.76863831 -2.45096207 5.76863831 -1.89730835 4.29919434 C-1 2 -1 2 0 0 Z M8 18 C4.39522552 26.19938457 1.52249703 34.40482493 -1 43 C4.94 43 10.88 43 17 43 C14.80536765 34.45248454 12.05452766 26.27016382 9 18 C8.67 18 8.34 18 8 18 Z " fill="#55C170" transform="translate(637,46)"/>
<path d="M0 0 C36.8 0 36.8 0 46.25 7.875 C51.13442605 13.80608878 50.7015182 21.73617868 50 29 C48.53823428 34.47943318 45.67890121 37.80347277 41.07421875 40.9921875 C35.11457121 43.88783546 29.53051849 44.2679606 23.0625 44.125 C19.0715625 44.063125 19.0715625 44.063125 15 44 C15 52.25 15 60.5 15 69 C10.05 69 5.1 69 0 69 C0 46.23 0 23.46 0 0 Z M15 12 C15 18.6 15 25.2 15 32 C18.3103125 32.0928125 18.3103125 32.0928125 21.6875 32.1875 C22.92886719 32.22230469 24.17023438 32.25710937 25.44921875 32.29296875 C29.21666932 31.98212299 31.02794917 31.2772857 34 29 C35.73765543 25.52468913 35.59585352 21.7911999 35 18 C32.47031526 14.71824682 30.92268669 13.30756223 27 12 C22.99616868 11.86600297 19.0072645 11.95691113 15 12 Z " fill="#58C272" transform="translate(448,45)"/>
<path d="M0 0 C17.16 0 34.32 0 52 0 C52 3.96 52 7.92 52 12 C45.73 12 39.46 12 33 12 C33 30.81 33 49.62 33 69 C28.38 69 23.76 69 19 69 C19 50.19 19 31.38 19 12 C12.73 12 6.46 12 0 12 C0 8.04 0 4.08 0 0 Z " fill="#53C06F" transform="translate(548,45)"/>
<path d="M0 0 C4.95 0 9.9 0 15 0 C15 19.14 15 38.28 15 58 C22.26 58 29.52 58 37 58 C37 61.63 37 65.26 37 69 C24.79 69 12.58 69 0 69 C0 46.23 0 23.46 0 0 Z " fill="#57C172" transform="translate(695,45)"/>
<path d="M0 0 C4.62 0 9.24 0 14 0 C14 22.77 14 45.54 14 69 C9.38 69 4.76 69 0 69 C0 46.23 0 23.46 0 0 Z " fill="#4FBF6B" transform="translate(517,45)"/>
<path d="M0 0 C0.66 0.33 1.32 0.66 2 1 C-4.6 7.6 -11.2 14.2 -18 21 C-18.66 20.67 -19.32 20.34 -20 20 C-13.6688763 12.89967436 -7.30341903 6.13126536 0 0 Z " fill="#57595B" transform="translate(55,48)"/>
</svg>
