<?xml version="1.0" standalone="no"?>
<!DOCTYPE svg PUBLIC "-//W3C//DTD SVG 20010904//EN"
 "http://www.w3.org/TR/2001/REC-SVG-20010904/DTD/svg10.dtd">
<svg version="1.0" xmlns="http://www.w3.org/2000/svg"
 width="1920.000000pt" height="1080.000000pt" viewBox="0 0 1920.000000 1080.000000"
 preserveAspectRatio="xMidYMid meet">

<g transform="translate(0.000000,1080.000000) scale(0.100000,-0.100000)"
fill="#000000" stroke="none">
<path d="M9400 7310 c-817 -101 -1452 -733 -1551 -1543 -17 -142 -6 -424 21
-551 50 -234 157 -483 288 -666 82 -115 249 -291 357 -376 337 -263 709 -384
1183 -384 141 0 180 10 202 49 6 12 10 133 10 320 l0 300 -24 28 -24 28 -209
6 c-169 6 -224 11 -293 29 -263 70 -486 230 -630 452 -197 304 -220 667 -65
997 133 279 378 482 683 563 99 26 304 35 409 18 387 -62 716 -350 833 -729
33 -103 50 -243 50 -399 0 -83 5 -152 11 -164 23 -43 62 -48 349 -48 287 0
326 5 349 48 17 32 14 385 -5 509 -82 555 -420 1041 -912 1310 -163 89 -348
153 -544 189 -101 18 -386 26 -488 14z"/>
</g>
</svg>
